# xmcd
#
# Track frame offsets: 
#        150
#        10223
#        23327
#        34955
#        44777
#        56074
#        66094
#        77037
#        89271
#        97919
#        114034
#        123993
#        135844
#        149916
#        162003
#        171985
#        182112
#        193223
#        202952
#        211871
#        221492
#        237519
#        249265
#        260238
#        271062
#        283647
#
# Disc length: 3936 seconds
#
# Revision: 0
# Processed by: cddbd v1.5.2PL0 Copyright (c) Steve Scherf et al.
# Submitted via: ExactAudioCopyFreeDBPlugin 1.0
#
DISCID=760f5e1a
DTITLE=Various Artist - Northern Soul Collector Volume 2,
DYEAR=1900
DGENRE=
TTITLE0=Danny Owens - I Can't Be A Fool For You
TTITLE1=Johnny Jones - I Find No Fault (In My Baby's Eyes)
TTITLE2=Joe Murphy - It s A Weakness
TTITLE3=Gene Chandler - Mr Big Shot
TTITLE4=Billy Hambric - Flaming Mamie
TTITLE5=Judy Harris - You Touched Me
TTITLE6=Men From Macon - Salvation
TTITLE7=Loleatta Holloway - Mother Of Shame
TTITLE8=Joe Simon - Travelin' Man
TTITLE9=Gloria Taylor - You Got To Pay The Price
TTITLE10=Sam Baker - I'm Number One
TTITLE11=Clarence Murray - Let's Get On With It
TTITLE12=The Victones - My Baby Changes
TTITLE13=The Ad Libs - Appreciation
TTITLE14=Eddie Wilson - Just Call On Me
TTITLE15=Mill Evans - When I'm Ready
TTITLE16=Barbara Jackson - Second Best
TTITLE17=Roscoe Shelton - You're The Dream
TTITLE18=Little Richie - One Bo-Dillion Years
TTITLE19=The Bouquets - Welcome To My Heart
TTITLE20=Joe Haywood - I Cross My Heart (And Hope To Die)
TTITLE21=Cathy Saint - Big Bad World
TTITLE22=Gerri Taylor - Empty Arms And Bitter Tears
TTITLE23=The Inspirations - Funny Situation
TTITLE24=Jackey Beavers - Lover Come Back
TTITLE25=Glenn Watts - My Little Plaything
EXTD=
EXTT0=
EXTT1=
EXTT2=
EXTT3=
EXTT4=
EXTT5=
EXTT6=
EXTT7=
EXTT8=
EXTT9=
EXTT10=
EXTT11=
EXTT12=
EXTT13=
EXTT14=
EXTT15=
EXTT16=
EXTT17=
EXTT18=
EXTT19=
EXTT20=
EXTT21=
EXTT22=
EXTT23=
EXTT24=
EXTT25=
PLAYORDER=
